<?xml version="1.0" standalone="no"?>
<!DOCTYPE svg PUBLIC "-//W3C//DTD SVG 20010904//EN"
 "http://www.w3.org/TR/2001/REC-SVG-20010904/DTD/svg10.dtd">
<svg version="1.0" xmlns="http://www.w3.org/2000/svg"
 width="163.000000pt" height="163.000000pt" viewBox="0 0 163.000000 163.000000"
 preserveAspectRatio="xMidYMid meet">
<metadata>
Created by potrace 1.14, written by Peter Selinger 2001-2017
</metadata>
<g transform="translate(0.000000,163.000000) scale(0.100000,-0.100000)"
fill="#000000" stroke="none">
<path d="M728 1564 c-58 -101 -86 -167 -108 -254 -50 -193 2 -359 144 -462
l39 -28 23 21 c43 40 77 136 81 226 3 89 10 71 -104 286 -8 16 -12 31 -9 34 3
3 10 -7 16 -22 6 -15 34 -62 64 -104 62 -89 76 -125 76 -196 0 -59 -29 -163
-60 -213 l-21 -34 23 7 c107 29 176 88 196 165 26 102 -31 245 -145 366 -90
95 -111 124 -147 198 l-34 68 -34 -58z"/>
<path d="M1020 825 c-70 -15 -95 -28 -149 -79 -41 -39 -43 -40 -29 -11 17 36
18 71 1 68 -7 -2 -13 1 -13 7 0 5 -10 9 -22 7 -32 -3 -53 -65 -29 -86 15 -12
14 -13 -1 -8 -19 7 -20 3 -22 -100 0 -57 -5 -63 -23 -34 -22 34 -98 72 -154
76 -43 3 -67 -2 -120 -26 -37 -16 -76 -29 -87 -29 -32 0 -33 -12 -4 -40 69
-68 147 -100 243 -101 69 -1 99 10 137 48 11 11 9 15 -15 24 -15 5 -41 16 -58
24 -63 28 -108 37 -163 32 l-57 -5 50 12 c32 8 64 9 90 4 61 -13 163 -58 169
-75 4 -9 13 -13 24 -9 15 5 15 4 1 -6 -13 -9 -15 -18 -7 -47 10 -37 28 -65 28
-43 0 7 5 12 12 12 6 0 4 -8 -6 -19 -12 -13 -14 -21 -6 -26 5 -3 8 -10 5 -15
-9 -14 15 -23 30 -10 8 7 15 7 19 1 4 -5 -2 -12 -13 -16 -17 -5 -18 -9 -8 -35
11 -30 30 -39 42 -20 3 5 17 10 30 10 28 0 42 17 27 32 -8 8 -15 8 -26 -1 -10
-8 -16 -9 -21 -1 -3 5 1 10 9 10 28 0 27 20 -4 65 -17 25 -28 45 -24 45 3 0 1
7 -6 15 -7 8 -9 15 -5 15 4 0 2 6 -4 13 -6 8 -8 17 -4 20 3 4 2 7 -3 7 -11 0
-13 10 -17 102 -2 37 0 65 5 62 4 -3 8 -1 8 4 0 12 111 59 168 71 23 5 58 5
77 1 18 -4 36 -6 39 -4 4 2 4 1 1 -3 -3 -4 -25 -6 -49 -4 -51 3 -107 -11 -184
-45 -53 -24 -54 -25 -37 -44 69 -76 290 -43 392 59 l36 36 -49 11 c-27 5 -67
18 -89 28 -22 10 -44 19 -50 20 -5 1 -14 4 -20 7 -5 3 -35 1 -65 -6z m-200
-95 c0 -5 -5 -10 -11 -10 -5 0 -7 5 -4 10 3 6 8 10 11 10 2 0 4 -4 4 -10z
m-30 -144 c0 -3 -4 -8 -10 -11 -5 -3 -10 -1 -10 4 0 6 5 11 10 11 6 0 10 -2
10 -4z m60 -116 c0 -5 -5 -10 -11 -10 -5 0 -7 5 -4 10 3 6 8 10 11 10 2 0 4
-4 4 -10z m25 -60 c3 -5 1 -10 -4 -10 -6 0 -11 5 -11 10 0 6 2 10 4 10 3 0 8
-4 11 -10z m-25 -4 c0 -3 -4 -8 -10 -11 -5 -3 -10 -1 -10 4 0 6 5 11 10 11 6
0 10 -2 10 -4z m30 -76 c0 -5 -5 -10 -11 -10 -5 0 -7 5 -4 10 3 6 8 10 11 10
2 0 4 -4 4 -10z"/>
<path d="M913 292 c-26 -4 -38 -34 -24 -60 6 -11 13 -45 16 -75 3 -31 15 -75
26 -97 27 -51 45 -64 34 -24 -10 35 -10 123 0 184 6 37 4 48 -11 61 -11 8 -29
13 -41 11z"/>
</g>
</svg>
